<svg viewBox="0 0 1024 1024"
  xmlns="http://www.w3.org/2000/svg">
  <path d="M610.67279861 581.07592483l46.43133748-45.68644895a23.58811233 23.58811233 0 0 0 5.76046504-24.33300018 23.98538589 23.98538589 0 0 0-18.96980801-15.89093938l-64.7059169-9.58422223a12.76241012 12.76241012 0 0 1-9.53456364-6.65433077l-28.85198592-59.09442901a23.43913516 23.43913516 0 1 0-42.11098817 0l-28.85198594 59.09442901a13.06036511 13.06036511 0 0 1-9.53456295 6.65433077l-64.65625762 9.53456362a23.83640806 23.83640806 0 0 0-12.96104724 40.57155317l46.6796332 45.38849394a12.91138794 12.91138794 0 0 1 3.77409788 11.02433934l-11.17331649 64.80523478c-1.19182073 6.95228576 0.49659213 13.90457153 5.11489575 19.11878587a24.73027375 24.73027375 0 0 0 18.17526156 8.44206148 21.20447158 21.20447158 0 0 0 11.02433867-2.97955143l57.95226826-30.93767166a16.43719012 16.43719012 0 0 1 5.76046506-1.19182003c2.33398147 0 4.3203493 0.59591003 5.81012434 1.48977571l58.25022326 30.68937527c3.82375718 1.98636717 7.25024077 2.88023287 10.6767244 2.88023286 6.95228576 0 13.6562758-3.17818787 17.97662442-8.6903572a23.09152087 23.09152087 0 0 0 5.16455505-19.11878587l-10.97467939-64.50727978a12.26581866 12.26581866 0 0 1 3.7740979-11.02433933zM266.18703887 164.38571167h304.51011656C708.45173218 164.38571167 809.95510438 285.35548401 809.95510438 432.54530582v371.35137782c0 30.63971665-23.48879378 55.71760469-52.14214324 55.71760469l-293.13816364-0.59591002C326.77124359 859.01837833 214.04489562 738.59485673 214.04489562 591.45469418V220.10331635C214.04489562 189.46359971 237.53369007 164.38571167 266.18703887 164.38571167z m373.48672351 148.97755185H384.37589691l-3.82375718 0.39727357C370.57064393 315.84622282 363.02244815 326.02635574 363.02244815 338.19285583c0 13.70593508 9.53456363 24.82959231 21.30378947 24.82959231H639.62410309l3.82375718-0.39727356c9.93183652-2.08568573 17.48003298-12.26581866 17.48003298-24.43231875 0-13.70593508-9.53456363-24.82959231-21.30379016-24.8295923z" fill="currentColor"></path>
</svg>