<svg viewBox="0 0 1024 1024"
  xmlns="http://www.w3.org/2000/svg">
  <path d="M869.06610507 28.70571194H147.55191989C118.37199161 28.70571194 97.74775309 61.64981229 97.74775309 92.78224949v838.55563418c0 81.45441931 73.8266546 65.40490642 100.54592452 52.73431103l263.66741264-124.41375815c26.71926992-12.55046224 70.07767177-12.79210939 96.91293233-0.4832943l281.01215422 129.24117768c26.71926992 12.42894826 85.54585068 6.63632099 85.54585067-65.40490643V92.90376348C925.31327517 61.64981229 898.2446525 28.70571194 869.06610507 28.70571194z m-226.40266135 651.39094566l-137.92942813-75.42014493-136.52097049 78.67892927 24.60934514-163.51226606-112.14774912-114.27700567 153.1628641-25.58145711 67.03015606-149.39316863 70.07767178 147.58288632 153.62958829 21.96227331-109.8030814 117.05249572 27.89022293 162.90745778z" fill="currentColor"></path>
</svg>