<svg xmlns="http://www.w3.org/2000/svg" xmlns:xlink="http://www.w3.org/1999/xlink" fill="none" version="1.1" width="24" height="24" viewBox="0 0 24 24"><defs><clipPath id="master_svg0_4028_067648"><rect x="0" y="0" width="24" height="24" rx="0"/></clipPath><linearGradient x1="0" y1="0" x2="0.647412121295929" y2="1" id="master_svg1_4028_067603"><stop offset="0%" stop-color="#F583FF" stop-opacity="1"/><stop offset="100%" stop-color="#7C5CFC" stop-opacity="1"/></linearGradient></defs><g clip-path="url(#master_svg0_4028_067648)"><g><path d="M1,11.6Q1,13.7555,1.833656,15.7265Q2.63836,17.629,4.1046700000000005,19.0953Q5.57097,20.5616,7.47351,21.3663Q9.4445,22.2,11.6,22.2L20.2,22.2Q21.0284,22.2,21.6142,21.6142Q22.2,21.0284,22.2,20.2L22.2,16.7621L22.2,11.6Q22.2,9.44446,21.3663,7.47348Q20.5616,5.57095,19.0953,4.1046499999999995Q17.629,2.63835,15.7265,1.833653Q13.7555,1,11.6,1Q9.44449,1,7.4735,1.833658Q5.57097,2.63836,4.10466,4.1046700000000005Q2.63836,5.57097,1.833656,7.47351Q1,9.44449,1,11.6ZM11.6,20.6C6.62944,20.6,2.6,16.5706,2.6,11.6C2.6,6.62943,6.62943,2.6,11.6,2.6C16.5705,2.6,20.6,6.62941,20.6,11.6L20.6,16.7621L20.6,20.2C20.6,20.4209,20.4209,20.6,20.2,20.6L11.6,20.6ZM15.0883,7.57221L16.7424,15.3547C16.7543,15.4104,16.760199999999998,15.4668,16.760199999999998,15.5234C16.760199999999998,15.9708,16.3975,16.333399999999997,15.9502,16.333399999999997C15.5677,16.333399999999997,15.2374,16.0659,15.1578,15.6914L13.5036,7.90864C13.4918,7.85327,13.4859,7.79683,13.4859,7.74023C13.4859,7.29288,13.8485,6.93023,14.2959,6.93023C14.6783,6.93023,15.0087,7.19774,15.0883,7.57221ZM10.56676,8.843029999999999L12.1099,15.7012C12.193,16.0708,12.5213,16.333399999999997,12.9001,16.333399999999997C13.3474,16.333399999999997,13.7101,15.9708,13.7101,15.5234C13.7101,15.4636,13.7035,15.404,13.6902,15.345L12.1472,8.48742Q12.0291,7.96232,11.6314,7.61809Q11.2659,7.30172,10.78022,7.23716Q10.29455,7.1726,9.85909,7.3825Q9.38528,7.61088,9.13405,8.08689L6.30177,13.4533Q5.9459,14.1276,6.33958,14.7805Q6.73327,15.4334,7.49569,15.4334L10.01992,15.4334C10.46727,15.4334,10.82992,15.0708,10.82992,14.6234C10.82992,14.1761,10.46727,13.8134,10.01992,13.8134L7.94349,13.8134L10.56676,8.843029999999999Z" fill-rule="evenodd" fill="url(#master_svg1_4028_067603)" fill-opacity="1"/></g></g></svg>