<svg xmlns="http://www.w3.org/2000/svg" xmlns:xlink="http://www.w3.org/1999/xlink" fill="none" version="1.1" width="24" height="24" viewBox="0 0 24 24"><defs><clipPath id="master_svg0_4028_068882"><rect x="0" y="0" width="24" height="24" rx="0"/></clipPath><linearGradient x1="0" y1="0" x2="0.647412121295929" y2="1" id="master_svg1_4028_067603"><stop offset="0%" stop-color="#F583FF" stop-opacity="1"/><stop offset="100%" stop-color="#7C5CFC" stop-opacity="1"/></linearGradient></defs><g clip-path="url(#master_svg0_4028_068882)"><g><path d="M1,11.6Q1,13.7555,1.833656,15.7265Q2.63836,17.629,4.1046700000000005,19.0953Q5.57097,20.5616,7.47351,21.3663Q9.4445,22.2,11.6,22.2L20.2,22.2Q21.0284,22.2,21.6142,21.6142Q22.2,21.0284,22.2,20.2L22.2,16.7621L22.2,11.6Q22.2,9.44446,21.3663,7.47348Q20.5616,5.57095,19.0953,4.1046499999999995Q17.629,2.63835,15.7265,1.833653Q13.7555,1,11.6,1Q9.44449,1,7.4735,1.833658Q5.57097,2.63836,4.10466,4.1046700000000005Q2.63836,5.57097,1.833656,7.47351Q1,9.44449,1,11.6ZM11.6,20.6C6.62944,20.6,2.6,16.5706,2.6,11.6C2.6,6.62943,6.62943,2.6,11.6,2.6C16.5705,2.6,20.6,6.62941,20.6,11.6L20.6,16.7621L20.6,20.2C20.6,20.4209,20.4209,20.6,20.2,20.6L11.6,20.6ZM8,10L8,14Q8,14.0983,8.00963,14.196Q8.01926,14.2938,8.03843,14.3902Q8.0576,14.4865,8.086120000000001,14.5806Q8.11464,14.6746,8.152239999999999,14.7654Q8.18984,14.8561,8.23616,14.9428Q8.28247,15.0294,8.337060000000001,15.1111Q8.39165,15.1928,8.45398,15.2688Q8.51631,15.3447,8.58579,15.4142Q8.65526,15.4837,8.73121,15.546Q8.80716,15.6084,8.888860000000001,15.6629Q8.97055,15.7175,9.05721,15.7638Q9.14386,15.8102,9.23463,15.8478Q9.32541,15.8854,9.41943,15.9139Q9.51345,15.9424,9.60982,15.9616Q9.70619,15.9807,9.80397,15.9904Q9.90175,16,10,16L14,16Q14.0983,16,14.196,15.9904Q14.2938,15.9807,14.3902,15.9616Q14.4865,15.9424,14.5806,15.9139Q14.6746,15.8854,14.7654,15.8478Q14.8561,15.8102,14.9428,15.7638Q15.0294,15.7175,15.1111,15.6629Q15.1928,15.6084,15.2688,15.546Q15.3447,15.4837,15.4142,15.4142Q15.4837,15.3447,15.546,15.2688Q15.6084,15.1928,15.6629,15.1111Q15.7175,15.0294,15.7638,14.9428Q15.8102,14.8561,15.8478,14.7654Q15.8854,14.6746,15.9139,14.5806Q15.9424,14.4865,15.9616,14.3902Q15.9807,14.2938,15.9904,14.196Q16,14.0983,16,14L16,10Q16,9.90175,15.9904,9.80397Q15.9807,9.70619,15.9616,9.60982Q15.9424,9.51345,15.9139,9.41943Q15.8854,9.32541,15.8478,9.23463Q15.8102,9.14386,15.7638,9.05721Q15.7175,8.97055,15.6629,8.888860000000001Q15.6084,8.80716,15.546,8.73121Q15.4837,8.65526,15.4142,8.58579Q15.3447,8.51631,15.2688,8.45398Q15.1928,8.39165,15.1111,8.337060000000001Q15.0294,8.28247,14.9428,8.23616Q14.8561,8.18984,14.7654,8.152239999999999Q14.6746,8.11464,14.5806,8.086120000000001Q14.4865,8.0576,14.3902,8.03843Q14.2938,8.01926,14.196,8.00963Q14.0983,8,14,8L10,8Q9.90175,8,9.80397,8.00963Q9.70619,8.01926,9.60982,8.03843Q9.51345,8.0576,9.41943,8.086120000000001Q9.32541,8.11464,9.23463,8.152239999999999Q9.14386,8.18984,9.05721,8.23616Q8.97055,8.28247,8.888860000000001,8.337060000000001Q8.80716,8.39165,8.73121,8.45398Q8.65526,8.51631,8.58579,8.58579Q8.51631,8.65526,8.45398,8.73121Q8.39165,8.80716,8.337060000000001,8.888860000000001Q8.28247,8.97055,8.23616,9.05721Q8.18984,9.14386,8.152239999999999,9.23463Q8.11464,9.32541,8.086120000000001,9.41943Q8.0576,9.51345,8.03843,9.60982Q8.01926,9.70619,8.00963,9.80397Q8,9.90175,8,10Z" fill-rule="evenodd" fill="url(#master_svg1_4028_067603)" fill-opacity="1"/></g></g></svg>