<svg xmlns="http://www.w3.org/2000/svg" xmlns:xlink="http://www.w3.org/1999/xlink" fill="none" version="1.1" width="26.666667938232422" height="23.333332061767578" viewBox="0 0 26.666667938232422 23.333332061767578"><g><path d="M26.6667,12.9767L26.6667,19.6667C26.6667,21.6917,25.025,23.3333,23,23.3333L3.66667,23.3333C1.64167,23.3333,0,21.6917,0,19.6667L0,3.66667C0,1.64167,1.64167,0,3.66667,0L23,0C25.025,0,26.6667,1.64167,26.6667,3.66667L26.6667,12.9767ZM24.6667,10.6447L24.6667,3.66667C24.6667,2.74619,23.9205,2,23,2L3.66667,2C2.74619,2,2,2.74619,2,3.66667L2,14.4317C2.44028,14.3662,2.88593,14.3333,3.33333,14.3333C5.4242,14.3303,7.45037,15.0581,9.06133,16.391C10.678,12.1787,15.5068,9.57422,20.1035,9.57422C22.1568,9.57422,23.302,9.85767,24.6667,10.6447ZM24.6667,13.2147C24.5,12.9547,24.0063,12.538,23.3027,12.186C22.2323,11.6507,21.6362,11.5742,20.1035,11.5742C16.2982,11.5742,12.173,13.7167,10.8823,17.23C10.797,17.4627,10.651,17.865,10.445,18.4357C10.205,19.1013,9.36833,19.314,8.83967,18.8437C8.326,18.3863,7.94733,18.0603,7.71033,17.8703C6.46982,16.8729,4.9251,16.3305,3.33333,16.3333C2.88133,16.3333,2.43567,16.376,2,16.46L2,19.6667C2,20.5871,2.74619,21.3333,3.66667,21.3333L23,21.3333C23.9205,21.3333,24.6667,20.5871,24.6667,19.6667L24.6667,13.2143L24.6667,13.2147ZM7.33333,10.6667C5.67648,10.6667,4.33333,9.32352,4.33333,7.66667C4.33333,6.00981,5.67648,4.66667,7.33333,4.66667C8.99019,4.66667,10.3333,6.00981,10.3333,7.66667C10.3333,9.32352,8.99019,10.6667,7.33333,10.6667ZM7.33333,8.66667C7.88562,8.66667,8.33333,8.21895,8.33333,7.66667C8.33333,7.11438,7.88562,6.66667,7.33333,6.66667C6.78105,6.66667,6.33333,7.11438,6.33333,7.66667C6.33333,8.21895,6.78105,8.66667,7.33333,8.66667Z" fill="currentColor" fill-opacity="1"/></g></svg>
