<svg xmlns="http://www.w3.org/2000/svg" xmlns:xlink="http://www.w3.org/1999/xlink" fill="currentColor" version="1.1" width="16.25" height="15.3125" viewBox="0 0 16.25 15.3125"><g><path d="M1.63721,4.66149L1.63721,14.2344L0.538228,14.2344C0.242203,14.2344,0,14.4766,0,14.7726C0,15.0686,0.242203,15.3108,0.538228,15.3108L15.7118,15.3108C16.0123,15.3108,16.25,15.0686,16.25,14.7726C16.25,14.4766,16.0078,14.2344,15.7118,14.2344L14.8865,14.2344L14.8865,6.49909C14.8865,5.89806,14.5636,5.33292,14.0478,5.02344L8.69696,1.84186L8.69696,0.849047C8.69696,0.544051,8.53101,0.256996,8.2619,0.108983C7.99278,-0.0435148,7.66088,-0.0345444,7.40073,0.126924L2.458,3.18585C1.9422,3.5043,1.63721,4.05599,1.63721,4.66149ZM8.69696,3.0944L8.69696,14.2344L13.8101,14.2344L13.8101,6.50357C13.8101,6.27931,13.689,6.0685,13.4961,5.95189L8.69696,3.0944ZM7.62051,1.2572L7.62051,14.2344L2.71366,14.2344L2.71366,4.66598C2.71366,4.43723,2.83028,4.22643,3.02763,4.10533L5.32407,2.68126L7.62051,1.2572ZM4.03676,7.01489L6.34666,7.01489C6.64268,7.01489,6.88489,6.77268,6.88489,6.47666C6.88489,6.18063,6.64268,5.93843,6.34666,5.93843L4.03676,5.93843C3.74074,5.93843,3.49854,6.18063,3.49854,6.47666C3.49854,6.77268,3.74074,7.01489,4.03676,7.01489ZM12.1909,8.73661L9.881,8.73661C9.58498,8.73661,9.34277,8.49441,9.34277,8.19838C9.34277,7.90236,9.58498,7.66016,9.881,7.66016L12.1909,7.66016C12.4869,7.66016,12.7291,7.90236,12.7291,8.19838C12.7291,8.49441,12.4914,8.73661,12.1909,8.73661ZM4.03676,9.68809L6.34666,9.68809C6.64268,9.68809,6.88489,9.44588,6.88489,9.14986C6.88489,8.85383,6.64268,8.61163,6.34666,8.61163L4.03676,8.61163C3.74074,8.61163,3.49854,8.85383,3.49854,9.14986C3.49854,9.44588,3.74074,9.68809,4.03676,9.68809ZM12.1909,11.6341L9.881,11.6341C9.58498,11.6341,9.34277,11.3919,9.34277,11.0958C9.34277,10.7998,9.58498,10.5576,9.881,10.5576L12.1909,10.5576C12.4869,10.5576,12.7291,10.7998,12.7291,11.0958C12.7291,11.3919,12.4914,11.6341,12.1909,11.6341ZM4.03676,12.3613L6.34666,12.3613C6.64268,12.3613,6.88489,12.1191,6.88489,11.8231C6.88489,11.527,6.64268,11.2848,6.34666,11.2848L4.03676,11.2848C3.74074,11.2848,3.49854,11.527,3.49854,11.8231C3.49854,12.1191,3.74074,12.3613,4.03676,12.3613Z" fill-rule="evenodd" fill="currentColor" fill-opacity="1"/><path d="" fill="currentColor" fill-opacity="1"/></g></svg>
