<svg viewBox="0 0 1170 1024"
  xmlns="http://www.w3.org/2000/svg">
  <path d="M655.91406249 155.45833333L527.98046874 155.45833332C474.98242186 156.30208332 432.74218749 194.37630207 433.79687499 240.36067707c1.00195313 44.9296875 42.55664062 81.89648438 94.18359375 81.89648438l128.0390625 0c52.99804688 0 95.23828125-38.91796875 94.18359375-84.90234375C749.14843749 192.37239582 707.48828124 156.24934895 655.91406249 155.45833333z m0 278.64843749L527.98046874 434.10677082C474.98242186 434.95052083 432.74218749 473.02473957 433.79687499 519.11458332c1.00195313 44.87695313 42.55664063 80.15625001 94.18359375 81.84375l128.0390625 0c52.99804688-1.6875 95.23828125-38.91796875 94.18359375-84.90234374-1.00195313-44.98242188-42.66210938-81.10546875-94.2890625-81.94921876z m0 277.75195314L527.98046874 711.85872395c-52.99804688 1.6875-95.23828125 38.97070313-94.18359375 84.95507812 1.00195313 44.87695313 42.66210938 81 94.18359375 81.84375l128.0390625 0c53.05078125-0.84375 95.1328125-38.91796875 94.18359375-85.00781249-1.00195313-44.87695313-42.45117188-80.84179689-94.2890625-81.68554689l0-0.10546873zM350.42382811 505.08723957l-24.46874999 0C239.99804686 505.08723957 170.12499999 574.06380207 170.12499999 659.07161457l0.21093751 8.4375c4.16601563 75.515625 63.38671875 136.63476563 138.37499999 144.703125l7.75195312 0.6328125 0 61.33007813 95.44921876-94.39453126-95.60742188-94.39453124 0.2109375 60.59179688-6.27539063-0.79101563a88.171875 88.171875 0 0 1-47.09179687-24.20507813 86.484375 86.484375 0 0 1 0.05273438-123.50390625c16.55859375-16.453125 39.02343751-25.62890625 62.75390625-25.62890625l24.46874999 0a33.43359375 33.43359375 0 1 0 0-66.81445312z m508.25390625-277.91015625l-24.52148437-1e-8a33.43359375 33.43359375 0 0 0 0 66.8671875l24.52148437 1e-8c23.62500001 0 46.14257813 9.12304688 62.6484375 25.41796875 16.76953125 16.61132813 25.89257813 38.390625 25.89257813 61.75195313 0 23.203125-9.28125001 45.08789062-26.05078125 61.8046875l-5.74804688 5.16796875c-11.91796876 9.80859375-26.3671875 16.40039063-41.66015625 19.08984375l-6.38085937 0.79101562L867.37890624 407.47591145l-95.44921875 94.39453124 95.44921875 94.39453126L867.37890624 534.9876302l7.8046875-0.63281251c77.88867188-8.38476563 138.95507814-73.828125 138.95507812-153.14062499 0.10546875-85.11328125-69.50390625-153.984375-155.4609375-153.984375z" fill="currentColor"></path>
</svg>