<svg xmlns="http://www.w3.org/2000/svg" xmlns:xlink="http://www.w3.org/1999/xlink" fill="none" version="1.1" width="16" height="16" viewBox="0 0 16 16"><defs><clipPath id="master_svg0_4028_062043"><rect x="0" y="0" width="16" height="16" rx="0"/></clipPath></defs><g clip-path="url(#master_svg0_4028_062043)"><g><path d="M8.5,8.74976375L8.5,14.64039375C8.5,14.70909375,8.44375,14.76539375,8.375,14.76539375L7.625,14.76539375C7.55625,14.76539375,7.5,14.70909375,7.5,14.64039375L7.5,8.74976375L1,8.74976375L1,14.76539375C1,15.31699375,1.44844,15.76539375,2,15.76539375L14,15.76539375C14.5531,15.76539375,15,15.31699375,15,14.76539375L15,8.74976375L8.5,8.74976375ZM14,3.26538375L13.3438,3.26538375C13.2437,3.26538375,13.1844,3.15288375,13.2406,3.07007375C13.4844,2.70757375,13.6031,2.30913375,13.5781,1.91382375C13.5484,1.44194375,13.3109,1.03257275,12.8938,0.7294477500000001C12.5938,0.51225975,12.1953,0.35444775,11.7734,0.28257235C11.0078,0.15444734999999998,10.1969,0.37163475,9.4875,0.89663475C9.10625,1.17944775,8.75938,1.54038375,8.45,1.97788375C8.25156,2.25757375,7.83437,2.25757375,7.63594,1.97788375C7.32656,1.54038375,6.97969,1.17788475,6.59844,0.89663475C5.89062,0.37163475,5.07969,0.15288495000000002,4.31406,0.28257245C3.89219,0.35444775,3.49375,0.51225975,3.19375,0.7294477500000001C2.77656,1.03100975,2.53906,1.44038375,2.50938,1.91382375C2.48438,2.30913375,2.60156,2.70757375,2.84688,3.07007375C2.90313,3.15288375,2.84531,3.26538375,2.74375,3.26538375L2,3.26538375C0.895312,3.26538375,0,4.16069375,0,5.26538375L0,7.26538375C0,7.49819375,0.159375,7.69507375,0.375,7.74976375L15.625,7.74976375C15.8406,7.69507375,16,7.49819375,16,7.26538375L16,5.26538375C16,4.16069375,15.1047,3.26538375,14,3.26538375ZM8.93906,3.07944375C9.77031,1.57163375,10.8234,1.1356977499999998,11.6062,1.26851375C11.7016,1.28413375,12.5437,1.44194375,12.5797,1.97788375C12.6094,2.44507375,12.0938,3.06382375,11.2047,3.26538375L9.04844,3.26538375C8.95312,3.26538375,8.89375,3.16382375,8.93906,3.07944375ZM3.50625,1.97788375C3.54062,1.44194375,4.38281,1.28569375,4.47969,1.26851375C5.26406,1.1372597500000001,6.31719,1.57163375,7.14687,3.07944375C7.19375,3.16226375,7.13281,3.26538375,7.0375,3.26538375L4.88125,3.26538375C3.99375,3.06226375,3.47656,2.44507375,3.50625,1.97788375Z" fill="#FFFFFF" fill-opacity="1"/></g></g></svg>