
<svg xmlns="http://www.w3.org/2000/svg" xmlns:xlink="http://www.w3.org/1999/xlink" fill="currentColor" version="1.1" width="13.19989013671875" height="2.93359375" viewBox="0 0 13.19989013671875 2.93359375"><g><path d="M13.1999,1.46665Q13.1999,1.53871,13.1928,1.61041Q13.1858,1.68212,13.1717,1.75278Q13.1577,1.82345,13.1368,1.8924Q13.1158,1.96135,13.0883,2.02792Q13.0607,2.09449,13.0267,2.15803Q12.9928,2.22157,12.9527,2.28148Q12.9127,2.34139,12.867,2.39709Q12.8213,2.45279,12.7703,2.50373Q12.7194,2.55468,12.6637,2.60039Q12.608,2.6461,12.5481,2.68613Q12.4882,2.72616,12.4246,2.76013Q12.3611,2.79409,12.2945,2.82166Q12.228,2.84924,12.159,2.87015Q12.0901,2.89107,12.0194,2.90513Q11.9487,2.91918,11.877,2.92625Q11.8053,2.93331,11.7333,2.93331Q11.6612,2.93331,11.5895,2.92625Q11.5178,2.91918,11.4471,2.90513Q11.3765,2.89107,11.3075,2.87015Q11.2386,2.84924,11.172,2.82167Q11.1054,2.79409,11.0419,2.76013Q10.9783,2.72616,10.9184,2.68613Q10.8585,2.6461,10.8028,2.60039Q10.7471,2.55468,10.6962,2.50373Q10.6452,2.45279,10.5995,2.39709Q10.5538,2.34139,10.5138,2.28148Q10.4737,2.22157,10.4398,2.15803Q10.4058,2.09449,10.3782,2.02792Q10.3507,1.96135,10.3298,1.8924Q10.3088,1.82345,10.2948,1.75278Q10.2807,1.68212,10.2737,1.61041Q10.2666,1.53871,10.2666,1.46665Q10.2666,1.3946,10.2737,1.3229Q10.2807,1.25119,10.2948,1.18052Q10.3088,1.10986,10.3298,1.04091Q10.3507,0.971957,10.3782,0.90539Q10.4058,0.838822,10.4398,0.775278Q10.4737,0.711734,10.5138,0.651825Q10.5538,0.591915,10.5995,0.536218Q10.6452,0.480521,10.6962,0.429573Q10.7471,0.378624,10.8028,0.332915Q10.8585,0.287206,10.9184,0.247176Q10.9783,0.207146,11.0419,0.173181Q11.1054,0.139215,11.172,0.111642Q11.2386,0.0840692,11.3075,0.0631536Q11.3765,0.042238,11.4471,0.0281813Q11.5178,0.0141247,11.5895,0.00706234Q11.6612,0,11.7333,0Q11.8053,0,11.877,0.00706234Q11.9487,0.0141247,12.0194,0.0281813Q12.0901,0.042238,12.159,0.0631536Q12.228,0.0840692,12.2945,0.111642Q12.3611,0.139215,12.4246,0.173181Q12.4882,0.207146,12.5481,0.247176Q12.608,0.287206,12.6637,0.332915Q12.7194,0.378624,12.7703,0.429573Q12.8213,0.480521,12.867,0.536218Q12.9127,0.591915,12.9527,0.651825Q12.9928,0.711734,13.0267,0.775278Q13.0607,0.838822,13.0883,0.90539Q13.1158,0.971957,13.1368,1.04091Q13.1577,1.10986,13.1717,1.18052Q13.1858,1.25119,13.1928,1.3229Q13.1999,1.3946,13.1999,1.46665ZM2.93329,1.46665Q2.93329,1.53871,2.92623,1.61041Q2.91917,1.68212,2.90511,1.75278Q2.89105,1.82345,2.87014,1.8924Q2.84922,1.96135,2.82165,2.02792Q2.79408,2.09449,2.76011,2.15803Q2.72615,2.22157,2.68612,2.28148Q2.64609,2.34139,2.60038,2.39709Q2.55467,2.45279,2.50372,2.50373Q2.45277,2.55468,2.39708,2.60039Q2.34138,2.6461,2.28147,2.68613Q2.22156,2.72616,2.15802,2.76013Q2.09447,2.79409,2.02791,2.82166Q1.96134,2.84924,1.89239,2.87015Q1.82344,2.89107,1.75277,2.90513Q1.68211,2.91918,1.6104,2.92625Q1.5387,2.93331,1.46665,2.93331Q1.39459,2.93331,1.32289,2.92625Q1.25118,2.91918,1.18052,2.90513Q1.10985,2.89107,1.0409,2.87015Q0.971952,2.84924,0.905384,2.82167Q0.838817,2.79409,0.775274,2.76013Q0.71173,2.72616,0.651821,2.68613Q0.591912,2.6461,0.536215,2.60039Q0.480519,2.55468,0.42957,2.50373Q0.378622,2.45279,0.332913,2.39709Q0.287204,2.34139,0.247174,2.28148Q0.207145,2.22157,0.17318,2.15803Q0.139215,2.09449,0.111642,2.02792Q0.0840688,1.96135,0.0631533,1.8924Q0.0422378,1.82345,0.0281812,1.75278Q0.0141246,1.68212,0.0070623,1.61041Q0,1.53871,0,1.46665Q0,1.3946,0.0070623,1.3229Q0.0141246,1.25119,0.0281812,1.18052Q0.0422378,1.10986,0.0631533,1.04091Q0.0840688,0.971957,0.111642,0.90539Q0.139215,0.838822,0.17318,0.775278Q0.207145,0.711734,0.247174,0.651825Q0.287204,0.591915,0.332913,0.536218Q0.378622,0.480521,0.42957,0.429573Q0.480519,0.378624,0.536215,0.332915Q0.591912,0.287206,0.651821,0.247176Q0.71173,0.207146,0.775274,0.173181Q0.838817,0.139215,0.905384,0.111642Q0.971952,0.0840692,1.0409,0.0631536Q1.10985,0.042238,1.18052,0.0281813Q1.25118,0.0141247,1.32289,0.00706234Q1.39459,0,1.46665,0Q1.5387,0,1.6104,0.00706234Q1.68211,0.0141247,1.75277,0.0281813Q1.82344,0.042238,1.89239,0.0631536Q1.96134,0.0840692,2.02791,0.111642Q2.09447,0.139215,2.15802,0.173181Q2.22156,0.207146,2.28147,0.247176Q2.34138,0.287206,2.39708,0.332915Q2.45277,0.378624,2.50372,0.429573Q2.55467,0.480521,2.60038,0.536218Q2.64609,0.591915,2.68612,0.651825Q2.72615,0.711734,2.76011,0.775278Q2.79408,0.838822,2.82165,0.90539Q2.84922,0.971957,2.87014,1.04091Q2.89105,1.10986,2.90511,1.18052Q2.91917,1.25119,2.92623,1.3229Q2.93329,1.3946,2.93329,1.46665ZM8.06661,1.46665Q8.06661,1.53871,8.05955,1.61041Q8.05248,1.68212,8.03843,1.75278Q8.02437,1.82345,8.00345,1.8924Q7.98254,1.96135,7.95496,2.02792Q7.92739,2.09449,7.89343,2.15803Q7.85946,2.22157,7.81943,2.28148Q7.7794,2.34139,7.73369,2.39709Q7.68798,2.45279,7.63703,2.50373Q7.58609,2.55468,7.53039,2.60039Q7.47469,2.6461,7.41478,2.68613Q7.35487,2.72616,7.29133,2.76013Q7.22779,2.79409,7.16122,2.82166Q7.09465,2.84924,7.0257,2.87015Q6.95675,2.89107,6.88608,2.90513Q6.81542,2.91918,6.74371,2.92625Q6.67201,2.93331,6.59995,2.93331Q6.5279,2.93331,6.4562,2.92625Q6.38449,2.91918,6.31382,2.90513Q6.24316,2.89107,6.17421,2.87015Q6.10526,2.84924,6.03869,2.82167Q5.97212,2.79409,5.90858,2.76013Q5.84503,2.72616,5.78512,2.68613Q5.72521,2.6461,5.66952,2.60039Q5.61382,2.55468,5.56287,2.50373Q5.51192,2.45279,5.46622,2.39709Q5.42051,2.34139,5.38048,2.28148Q5.34045,2.22157,5.30648,2.15803Q5.27252,2.09449,5.24494,2.02792Q5.21737,1.96135,5.19645,1.8924Q5.17554,1.82345,5.16148,1.75278Q5.14743,1.68212,5.14036,1.61041Q5.1333,1.53871,5.1333,1.46665Q5.1333,1.3946,5.14036,1.3229Q5.14743,1.25119,5.16148,1.18052Q5.17554,1.10986,5.19645,1.04091Q5.21737,0.971957,5.24494,0.90539Q5.27252,0.838822,5.30648,0.775278Q5.34045,0.711734,5.38048,0.651825Q5.42051,0.591915,5.46622,0.536218Q5.51192,0.480521,5.56287,0.429573Q5.61382,0.378624,5.66952,0.332915Q5.72521,0.287206,5.78512,0.247176Q5.84503,0.207146,5.90858,0.173181Q5.97212,0.139215,6.03869,0.111642Q6.10526,0.0840692,6.17421,0.0631536Q6.24316,0.042238,6.31382,0.0281813Q6.38449,0.0141247,6.4562,0.00706234Q6.5279,0,6.59995,0Q6.67201,0,6.74371,0.00706234Q6.81542,0.0141247,6.88608,0.0281813Q6.95675,0.042238,7.0257,0.0631536Q7.09465,0.0840692,7.16122,0.111642Q7.22778,0.139215,7.29133,0.173181Q7.35487,0.207146,7.41478,0.247176Q7.47469,0.287206,7.53039,0.332915Q7.58609,0.378624,7.63703,0.429573Q7.68798,0.480521,7.73369,0.536218Q7.7794,0.591915,7.81943,0.651825Q7.85946,0.711734,7.89343,0.775278Q7.92739,0.838822,7.95496,0.90539Q7.98254,0.971957,8.00345,1.04091Q8.02437,1.10986,8.03843,1.18052Q8.05248,1.25119,8.05955,1.3229Q8.06661,1.3946,8.06661,1.46665Z" fill="currentColor" fill-opacity="1"/></g></svg>
