<svg xmlns="http://www.w3.org/2000/svg" xmlns:xlink="http://www.w3.org/1999/xlink" fill="none" version="1.1" width="24" height="24" viewBox="0 0 24 24"><defs><clipPath id="master_svg0_3970_98697"><rect x="0" y="0" width="24" height="24" rx="0"/></clipPath></defs><g clip-path="url(#master_svg0_3970_98697)"><g><path d="M6,5.75C6,5.75,8,5.75,8,5.75C8,5.75,8,4.25,8,4.25C8,4.25,6,4.25,6,4.25C6,4.25,6,5.75,6,5.75C6,5.75,6,5.75,6,5.75ZM9.25,7C9.25,7,9.25,17,9.25,17C9.25,17,10.75,17,10.75,17C10.75,17,10.75,7,10.75,7C10.75,7,9.25,7,9.25,7C9.25,7,9.25,7,9.25,7ZM8,18.25C8,18.25,6,18.25,6,18.25C6,18.25,6,19.75,6,19.75C6,19.75,8,19.75,8,19.75C8,19.75,8,18.25,8,18.25C8,18.25,8,18.25,8,18.25ZM4.75,17C4.75,17,4.75,7,4.75,7C4.75,7,3.25,7,3.25,7C3.25,7,3.25,17,3.25,17C3.25,17,4.75,17,4.75,17C4.75,17,4.75,17,4.75,17ZM6,18.25C5.30964,18.25,4.75,17.6904,4.75,17C4.75,17,3.25,17,3.25,17C3.25,18.5188,4.48122,19.75,6,19.75C6,19.75,6,18.25,6,18.25C6,18.25,6,18.25,6,18.25ZM9.25,17C9.25,17.6904,8.69036,18.25,8,18.25C8,18.25,8,19.75,8,19.75C9.51878,19.75,10.75,18.5188,10.75,17C10.75,17,9.25,17,9.25,17C9.25,17,9.25,17,9.25,17ZM8,5.75C8.69036,5.75,9.25,6.30964,9.25,7C9.25,7,10.75,7,10.75,7C10.75,5.48122,9.51878,4.25,8,4.25C8,4.25,8,5.75,8,5.75C8,5.75,8,5.75,8,5.75ZM6,4.25C4.48122,4.25,3.25,5.48122,3.25,7C3.25,7,4.75,7,4.75,7C4.75,6.30964,5.30964,5.75,6,5.75C6,5.75,6,4.25,6,4.25C6,4.25,6,4.25,6,4.25ZM16,5.75C16,5.75,18,5.75,18,5.75C18,5.75,18,4.25,18,4.25C18,4.25,16,4.25,16,4.25C16,4.25,16,5.75,16,5.75C16,5.75,16,5.75,16,5.75ZM19.25,7C19.25,7,19.25,17,19.25,17C19.25,17,20.75,17,20.75,17C20.75,17,20.75,7,20.75,7C20.75,7,19.25,7,19.25,7C19.25,7,19.25,7,19.25,7ZM18,18.25C18,18.25,16,18.25,16,18.25C16,18.25,16,19.75,16,19.75C16,19.75,18,19.75,18,19.75C18,19.75,18,18.25,18,18.25C18,18.25,18,18.25,18,18.25ZM14.75,17C14.75,17,14.75,7,14.75,7C14.75,7,13.25,7,13.25,7C13.25,7,13.25,17,13.25,17C13.25,17,14.75,17,14.75,17C14.75,17,14.75,17,14.75,17ZM16,18.25C15.3096,18.25,14.75,17.6904,14.75,17C14.75,17,13.25,17,13.25,17C13.25,18.5188,14.4812,19.75,16,19.75C16,19.75,16,18.25,16,18.25C16,18.25,16,18.25,16,18.25ZM19.25,17C19.25,17.6904,18.6904,18.25,18,18.25C18,18.25,18,19.75,18,19.75C19.5188,19.75,20.75,18.5188,20.75,17C20.75,17,19.25,17,19.25,17C19.25,17,19.25,17,19.25,17ZM18,5.75C18.6904,5.75,19.25,6.30964,19.25,7C19.25,7,20.75,7,20.75,7C20.75,5.48122,19.5188,4.25,18,4.25C18,4.25,18,5.75,18,5.75C18,5.75,18,5.75,18,5.75ZM16,4.25C14.4812,4.25,13.25,5.48122,13.25,7C13.25,7,14.75,7,14.75,7C14.75,6.30964,15.3096,5.75,16,5.75C16,5.75,16,4.25,16,4.25C16,4.25,16,4.25,16,4.25Z" fill="#28303F" fill-opacity="1"/></g></g></svg>