

<svg xmlns="http://www.w3.org/2000/svg" xmlns:xlink="http://www.w3.org/1999/xlink" fill="none" version="1.1" width="20" height="20" viewBox="0 0 20 20"><defs><clipPath id="master_svg0_3930_60610"><rect x="0" y="0" width="20" height="20" rx="0"/></clipPath></defs><g clip-path="url(#master_svg0_3930_60610)"><g><path d="M18.6797125,9.945315Q18.6797125,10.158385,18.6692125,10.371205Q18.6588125,10.584025,18.6379125,10.796075Q18.6170125,11.008115,18.5857125,11.218885Q18.5545125,11.429625,18.5129125,11.638625Q18.4713125,11.847625,18.4196125,12.054325Q18.3678125,12.261025,18.3059125,12.464925Q18.2441125,12.668825,18.1723125,12.869425Q18.1005125,13.070025,18.0190125,13.266925Q17.9374125,13.463725,17.8463125,13.656325Q17.7552125,13.848925,17.6548125,14.036925Q17.5543125,14.224825,17.4448125,14.407525Q17.3353125,14.590325,17.2169125,14.767525Q17.0985125,14.944625,16.9716125,15.115825Q16.8446125,15.286925,16.709512500000002,15.451625Q16.574312499999998,15.616325,16.4312125,15.774225Q16.2881125,15.932125,16.1375125,16.082825Q15.9868125,16.233425,15.8289125,16.376525Q15.6710125,16.519624999999998,15.5063125,16.654825000000002Q15.3416125,16.789925,15.1705125,16.916925Q14.9993125,17.043825,14.8222125,17.162225Q14.6450125,17.280625,14.4622125,17.390125Q14.2795125,17.499625,14.0916125,17.600125Q13.9036125,17.700525,13.7110125,17.791625Q13.5184125,17.882725,13.3216125,17.964325Q13.1247125,18.045825,12.9241125,18.117625Q12.7235125,18.189425,12.5196125,18.251225Q12.3157125,18.313125,12.1090125,18.364925Q11.9023125,18.416625,11.6933125,18.458225Q11.4843125,18.499825,11.2735725,18.531025Q11.0628025,18.562325,10.8507625,18.583225Q10.6387125,18.604125,10.4258925,18.614525Q10.2130725,18.625025,10.0000025,18.625025Q9.7869225,18.625025,9.5741125,18.614525Q9.3612925,18.604125,9.1492425,18.583225Q8.9371925,18.562325,8.7264225,18.531025Q8.5156525,18.499825,8.306672500000001,18.458225Q8.0976925,18.416625,7.8910025,18.364925Q7.6843225,18.313125,7.4804225,18.251225Q7.2765225,18.189425,7.0759025,18.117625Q6.8752825,18.045825,6.6784225,17.964325Q6.4815725,17.882725,6.2889525,17.791625Q6.0963425,17.700525,5.9084225,17.600125Q5.7205125,17.499625,5.5377525,17.390125Q5.3549925,17.280625,5.1778224999999996,17.162225Q5.0006625,17.043825,4.8295125,16.916925Q4.6583725000000005,16.789925,4.4936625,16.654825000000002Q4.3289525,16.519624999999998,4.1710825,16.376525Q4.0132025,16.233425,3.8625325,16.082825Q3.7118725,15.932125,3.5687725,15.774225Q3.4256825,15.616325,3.2905125,15.451625Q3.1553424999999997,15.286925,3.0284125,15.115825Q2.9014825,14.944625,2.7831025,14.767525Q2.6647225,14.590325,2.5551825,14.407525Q2.4456425,14.224825,2.3452025,14.036925Q2.2447565000000003,13.848925,2.1536555,13.656325Q2.0625545,13.463725,1.9810145000000001,13.266925Q1.8994745,13.070025,1.8276915,12.869425Q1.7559095,12.668825,1.6940565,12.464925Q1.6322045,12.261025,1.5804315,12.054325Q1.5286585,11.847625,1.4870905,11.638625Q1.4455215,11.429625,1.414257,11.218885Q1.3829925,11.008115,1.3621076,10.796075Q1.3412226,10.584025,1.3307676,10.371205Q1.3203125,10.158385,1.3203125,9.945315Q1.3203125,9.732235,1.3307676,9.519425Q1.3412226,9.306605,1.3621076,9.094555Q1.3829925,8.882505,1.414257,8.671735Q1.4455215,8.460965,1.4870905,8.251985000000001Q1.5286585,8.043005,1.5804315,7.836315Q1.6322045,7.629635,1.6940565,7.425735Q1.7559095,7.221835,1.8276915,7.021215Q1.8994745,6.820595,1.9810145000000001,6.623735Q2.0625545,6.426885,2.1536555,6.234265Q2.2447565000000003,6.041655,2.3452025,5.853735Q2.4456425,5.665825,2.5551825,5.483065Q2.6647225,5.300305,2.7831025,5.1231349999999996Q2.9014825,4.945975,3.0284125,4.774825Q3.1553424999999997,4.6036850000000005,3.2905125,4.438975Q3.4256825,4.274265,3.5687725,4.116395Q3.7118725,3.958515,3.8625325,3.807845Q4.0132025,3.657185,4.1710825,3.514085Q4.3289525,3.370995,4.4936625,3.235825Q4.6583725000000005,3.1006549999999997,4.8295125,2.973725Q5.0006625,2.846795,5.1778224999999996,2.728415Q5.3549925,2.610035,5.5377525,2.500495Q5.7205125,2.390955,5.9084225,2.290515Q6.0963425,2.1900690000000003,6.2889525,2.098968Q6.4815725,2.007867,6.6784225,1.9263270000000001Q6.8752825,1.844787,7.0759025,1.773004Q7.2765225,1.701222,7.4804225,1.639369Q7.6843225,1.577517,7.8910125,1.525744Q8.0976925,1.473971,8.306672500000001,1.432403Q8.5156525,1.390834,8.7264225,1.3595695Q8.9371925,1.328305,9.1492425,1.3074201Q9.3612925,1.2865351,9.5741125,1.2760801Q9.7869225,1.265625,10.0000025,1.265625Q10.2130725,1.265625,10.4258925,1.2760801Q10.6387125,1.2865351,10.8507625,1.3074201Q11.0628025,1.328305,11.2735725,1.3595695Q11.4843125,1.390834,11.6933125,1.432403Q11.9023125,1.473971,12.1090125,1.525744Q12.3157125,1.577517,12.5196125,1.639369Q12.7235125,1.701222,12.9241125,1.773004Q13.1247125,1.844787,13.3216125,1.9263270000000001Q13.5184125,2.007867,13.7110125,2.098968Q13.9036125,2.1900690000000003,14.0916125,2.290515Q14.2795125,2.390955,14.4622125,2.500495Q14.6450125,2.610035,14.8222125,2.728415Q14.9993125,2.846795,15.1705125,2.973725Q15.3416125,3.1006549999999997,15.5063125,3.235825Q15.6710125,3.370995,15.8289125,3.514085Q15.9868125,3.657185,16.1375125,3.807845Q16.2881125,3.958515,16.4312125,4.116395Q16.574312499999998,4.274265,16.709512500000002,4.438975Q16.8446125,4.6036850000000005,16.9716125,4.774825Q17.0985125,4.945975,17.2169125,5.1231349999999996Q17.3353125,5.300305,17.4448125,5.483065Q17.5543125,5.665825,17.6548125,5.853735Q17.7552125,6.041655,17.8463125,6.234265Q17.9374125,6.426885,18.0190125,6.623735Q18.1005125,6.820595,18.1723125,7.021215Q18.2441125,7.221835,18.3059125,7.425735Q18.3678125,7.629635,18.4196125,7.836325Q18.4713125,8.043005,18.5129125,8.251985000000001Q18.5545125,8.460965,18.5857125,8.671735Q18.6170125,8.882505,18.6379125,9.094555Q18.6588125,9.306605,18.6692125,9.519425Q18.6797125,9.732235,18.6797125,9.945315Z" fill="#FAB001" fill-opacity="1"/></g><g><path d="M17.3379125,8.968755C17.3379125,6.380855,16.2051125,4.060544999999999,14.4082125,2.4707049999999997C13.1172125,1.7050779999999999,11.6094125,1.265625,10.0000025,1.265625C5.2070325,1.265625,1.3203125,5.152345,1.3203125,9.945315C1.3203125,12.533225,2.4531225,14.853525,4.2500025,16.443325C5.5429725,17.207025,7.0488325,17.648425,8.660152499999999,17.648425C13.4531125,17.648425,17.3379125,13.761725,17.3379125,8.968755Z" fill="#F9E48A" fill-opacity="1"/></g><g><path d="M11.0937525,2.001953125C6.3007825,2.001953125,2.4140625,5.888673125,2.4140625,10.681643125C2.4140625,13.074253125,3.3847655,15.240253125,4.9531225,16.810553125C6.0781225,17.343753125,7.3320325,17.646453125,8.660152499999999,17.646453125C13.4531625,17.646453125,17.339862500000002,13.759753125,17.339862500000002,8.966793124999999C17.339862500000002,6.574223125,16.3691625,4.408203125,14.8007625,2.837891125C13.6757625,2.304688125,12.4199625,2.001953423023,11.0937525,2.001953125Z" fill="#FECE0A" fill-opacity="1"/></g><g><path d="M13.757862265625,12.039388125C13.757862265625,12.597978125000001,13.662152265625,12.910478125000001,13.265672265625,13.099938125000001C12.964892265625,13.242518125,12.582072265625001,13.283528125,12.089892265625,13.295248125C11.859422265625,13.301108124999999,11.658252265625,13.144858124999999,11.593792265625,12.924158125C11.585982265624999,12.894858124999999,11.576212265625,12.863608124999999,11.566452265625,12.834308125C11.462932265625,12.508138125,11.709032265625,12.178058125,12.050822265625001,12.178058125C12.207072265625001,12.178058125,12.330122265625,12.176108124999999,12.384812265625001,12.172198125000001C12.537152265625,12.172198125000001,12.574262265625,12.135088125,12.574262265625,12.012048125L12.574262265625,10.045248125C12.574262265625,9.765948125,12.347702265625,9.539388125,12.068402265625,9.539388125L11.357462265625,9.539388125C11.078162265625,9.539388125,10.851602265625,9.765948125,10.851602265625,10.045248125L10.851602265625,13.863608125C10.851602265625,14.142908125,10.625042265625,14.369468125,10.345742265625,14.369468125L10.175822265625,14.369468125C9.896532265625,14.369468125,9.669962265625,14.142908125,9.669962265625,13.863608125L9.669962265625,10.045248125C9.669962265625,9.765948125,9.443402265625,9.539388125,9.164102265625,9.539388125L8.519572265625,9.539388125C8.240282265625,9.539388125,8.013712265625,9.765948125,8.013712265625,10.045248125L8.013712265625,12.810868124999999C8.013712265625,13.090168125,7.787152265625,13.316728125000001,7.507852265625,13.316728125000001L7.365279265625,13.316728125000001C7.085982265625,13.316728125000001,6.859420265625,13.090168125,6.859420265625,12.810868124999999L6.859420265625,8.945638125C6.859420265625,8.666338125,7.085982265625,8.439778125,7.365279265625,8.439778125L9.166062265625,8.439778125C9.445362265625,8.439778125,9.671922265625,8.213218125000001,9.671922265625,7.933918125L9.671922265625,7.721028125C9.671922265625,7.431968125,9.429732265625,7.2014981250000005,9.140672265625,7.215168125C8.382862265625,7.248378125,7.627002265625,7.267908125,6.9023882656249995,7.273768125C6.666060265625,7.275718125,6.455122865625,7.111658125,6.406294665625,6.8811881249999995C6.406294665625,6.877278125,6.404341465625,6.873368125,6.404341465625,6.869468125C6.337935365625,6.555013125,6.566450265625,6.256185125,6.888716265625,6.248373125C9.193402265625,6.195638125,11.691452265625,6.041341125,13.496142265625,5.803060655C13.722702265625,5.773763825,13.939502265625,5.898763625,14.027392265625,6.109701125L14.048872265625,6.160483125C14.177782265625,6.469076125,13.982462265625,6.816728125,13.650432265625,6.8596981249999995C12.929732265624999,6.955408125,12.142622265625,7.029628125,11.320352265625,7.092128125C11.056682265625,7.111658125,10.853562265625001,7.332358125,10.853562265625001,7.597978125L10.853562265625001,7.935868125C10.853562265625001,8.215168125,11.080122265625,8.441728125000001,11.359422265625,8.441728125000001L13.253952265625,8.441728125000001C13.533242265624999,8.441728125000001,13.759812265625001,8.668298125,13.759812265625001,8.947588125L13.759812265625001,12.039388125L13.757862265625,12.039388125Z" fill="#FFFFFF" fill-opacity="1"/></g></g></svg>
