
<svg xmlns="http://www.w3.org/2000/svg" xmlns:xlink="http://www.w3.org/1999/xlink" fill="none" version="1.1" width="16" height="16" viewBox="0 0 16 16"><defs><clipPath id="master_svg0_3930_60871"><rect x="0" y="0" width="16" height="16" rx="0"/></clipPath></defs><g clip-path="url(#master_svg0_3930_60871)"><g><path d="M9.0031783203125,3.591121875L10.2031783203125,2.253523875C10.3354783203125,2.106887875,10.3688883203125,1.896040875,10.2883983203125,1.715687875C10.2079183203125,1.535334875,10.0286683203125,1.419387102,9.8311783203125,1.41992378235L6.1703783203125,1.41992378235C5.9730683203125,1.419781566,5.7941283203125,1.535683875,5.7135783203125,1.715798875C5.6330283203125,1.895912875,5.665938320312501,2.106554875,5.7975783203125,2.253523875L6.9895783203125,3.579921875C4.0972583203125,4.0603718749999995,1.9757565303125,6.560771875,1.9727783203125,9.492721875L1.9727783203125,12.888721875C1.9740958203125,13.787221875,2.7014603203125,14.515721875,3.5999783203125,14.518321875L12.3287783203125,14.518321875C13.2285783203125,14.517421875,13.9578783203125,13.788521875,13.9591783203125,12.888721875L13.9591783203125,9.492721875C13.9558783203125,6.584371875,11.8671683203125,4.097181875,9.0031783203125,3.591121875ZM8.7111783203125,2.419921875L7.9999783203125,3.210321875L7.2895783203125,2.419921875L8.7111783203125,2.419921875ZM12.9599783203125,12.888721875C12.9595783203125,13.236521875,12.6773783203125,13.518321875,12.3295783203125,13.518321875L3.5999783203125,13.518321875C3.2524383203125,13.517921875,2.9708193203124997,13.236221875,2.9703783203125003,12.888721875L2.9703783203125003,9.492721875C2.9351723203124997,6.710351875,5.1809783203125,4.435941875,7.9635783203125,4.435941875C10.7461683203125,4.435941875,12.9919783203125,6.710351875,12.9567783203125,9.492721875L12.9599783203125,12.888721875Z" fill="#303133" fill-opacity="1"/></g><g><path d="M6.19039041796875,10.458975625L7.53758841796875,10.458975625L7.53758841796875,11.906175625C7.52683841796875,12.159905625,7.72963841796875,12.371475625,7.98358841796875,12.371475625C8.23754841796875,12.371475625,8.44033841796875,12.159905625,8.42958841796875,11.906175625L8.42958841796875,10.458975625L9.77678841796875,10.458975625C10.03051841796875,10.469725625,10.242078417968749,10.266925624999999,10.242078417968749,10.012975625C10.242078417968749,9.759025625,10.03051841796875,9.556235625,9.77678841796875,9.566975625L8.42958841796875,9.566975625L8.42958841796875,8.774975625L9.77678841796875,8.774975625C10.03051841796875,8.785725625,10.242078417968749,8.582925625,10.242078417968749,8.328975625C10.242078417968749,8.075025625,10.03051841796875,7.872235625,9.77678841796875,7.882975625L8.65678841796875,7.882975625L9.30238841796875,7.236578625C9.47580841796875,7.063160625,9.47580841796875,6.781995625,9.30238841796875,6.608578625C9.12896841796875,6.435161125,8.84780841796875,6.435161125,8.67438841796875,6.608578625L7.99198841796875,7.291778625L7.30958841796875,6.608578625C7.13617841796875,6.435161125,6.85500841796875,6.435161125,6.68159041796875,6.608578625C6.5081734179687505,6.781996625,6.5081734179687505,7.063161625,6.68159141796875,7.236578625L7.32718841796875,7.882975625L6.19039041796875,7.882975625C5.95141541796875,7.8931056250000005,5.76288843156875,8.089785625,5.76288843156875,8.328975625C5.76288843156875,8.568165624999999,5.95141541796875,8.764855625,6.19039041796875,8.774975625L7.53758841796875,8.774975625L7.53758841796875,9.566975625L6.19039041796875,9.566975625C5.95141141796875,9.577095625,5.76287841796875,9.773785625,5.76287841796875,10.012975625C5.76287841796875,10.252175625,5.95141141796875,10.448855625,6.19039041796875,10.458975625Z" fill="#303133" fill-opacity="1"/></g></g></svg>

