<svg xmlns="http://www.w3.org/2000/svg" xmlns:xlink="http://www.w3.org/1999/xlink" fill="currentColor" version="1.1" width="15" height="15.015921592712402" viewBox="0 0 15 15.015921592712402"><g><path d="M13.755,11.6852L10.441,10.3937Q9.80898,10.1484,9.56347,9.90706C9.40565,9.75194,9.41707,9.386,9.55672,8.91856C9.69637,8.45111,11.3953,6.55145,11.3953,4.82582C11.3953,2.16079,9.64322,0,7.48212,0C5.32118,0,3.56928,2.16079,3.56928,4.82597C3.56928,6.47877,5.08319,8.44917,5.26998,8.80729C5.45693,9.16542,5.41144,9.71125,5.26383,9.87657Q5.04219,10.1249,4.23239,10.3739L1.24482,11.7054C0.546883,11.9561,0,12.6144,0,13.3571L0,13.7094C0,14.5199,0.658304,15.0159,1.46735,15.0159L6.47817,15.0159L8.19569,15.0159L13.5325,15.0159C14.3417,15.0159,15,14.5199,15,13.7094L15,13.3571C15,12.6143,14.4531,11.9359,13.755,11.6852ZM13.9254,13.7094C13.9254,13.804,13.8961,13.8288,13.8747,13.847C13.8051,13.906,13.6771,13.9413,13.5325,13.9413L1.46735,13.9413C1.32279,13.9413,1.1949,13.906,1.12527,13.847C1.10388,13.8288,1.07459,13.804,1.07459,13.7094L1.07459,13.3571C1.07459,13.1055,1.30896,12.8242,1.60817,12.7167L1.68225,12.6869L4.61281,11.3808C5.10459,11.2245,5.73227,10.9656,6.0656,10.5921C6.59107,10.0036,6.55629,8.94921,6.2226,8.31C6.16605,8.20156,6.08728,8.08108,5.96807,7.8987C5.74154,7.5521,5.39918,7.02834,5.1125,6.4351C4.72518,5.63367,4.64388,5.11769,4.64388,4.82595C4.64388,3.78257,4.9657,2.81103,5.55007,2.09031C6.08111,1.43532,6.76728,1.0746,7.48212,1.0746C8.19707,1.0746,8.88329,1.43533,9.41444,2.09033C9.99882,2.81105,10.3207,3.78252,10.3207,4.82581C10.3207,5.74761,9.53744,6.93021,9.06948,7.63676C8.78396,8.06784,8.61163,8.32804,8.52709,8.61094C8.25369,9.52612,8.34893,10.22,8.81019,10.6734C9.17438,11.0313,9.80001,11.2976,10.0521,11.3955L13.3648,12.6865L13.3919,12.6966C13.6861,12.8022,13.9254,13.0985,13.9254,13.3571L13.9254,13.7094L13.9254,13.7094Z" fill="currentColor" fill-opacity="1"/><path d="" fill="currentColor" fill-opacity="1"/></g></svg>
