<svg xmlns="http://www.w3.org/2000/svg" xmlns:xlink="http://www.w3.org/1999/xlink" fill="none" version="1.1" width="32"
  height="32" viewBox="0 0 32 32">
  <defs>
    <clipPath id="master_svg0_3970_047201">
      <rect x="8" y="8" width="16" height="16" rx="0" />
    </clipPath>
  </defs>
  <g>
    <g clip-path="url(#master_svg0_3970_047201)">
      <g>
        <path
          d="M15.19792,9L9.583333,9C9.260677,9,9,9.260677,9,9.583333L9,15.19792C9,15.278120000000001,9.0656251,15.34375,9.145833,15.34375L15.19792,15.34375C15.278120000000001,15.34375,15.34375,15.278120000000001,15.34375,15.19792L15.34375,9.145833C15.34375,9.0656251,15.278120000000001,9,15.19792,9ZM14.17708,14.17708L10.16667,14.17708L10.16667,10.16667L14.17708,10.16667L14.17708,14.17708ZM11.66146,12.82812L12.68229,12.82812C12.7625,12.82812,12.82812,12.7625,12.82812,12.68229L12.82812,11.66146C12.82812,11.58125,12.7625,11.51562,12.68229,11.51562L11.66146,11.51562C11.58125,11.51562,11.51562,11.58125,11.51562,11.66146L11.51562,12.68229C11.51562,12.7625,11.58125,12.82812,11.66146,12.82812ZM15.19792,16.65625L9.145833,16.65625C9.0656251,16.65625,9,16.72187,9,16.80208L9,22.4167C9,22.7393,9.260677,23,9.583333,23L15.19792,23C15.278120000000001,23,15.34375,22.9344,15.34375,22.8542L15.34375,16.80208C15.34375,16.72187,15.278120000000001,16.65625,15.19792,16.65625ZM14.17708,21.8333L10.16667,21.8333L10.16667,17.82292L14.17708,17.82292L14.17708,21.8333ZM11.66146,20.4844L12.68229,20.4844C12.7625,20.4844,12.82812,20.4187,12.82812,20.3385L12.82812,19.317700000000002C12.82812,19.2375,12.7625,19.1719,12.68229,19.1719L11.66146,19.1719C11.58125,19.1719,11.51562,19.2375,11.51562,19.317700000000002L11.51562,20.3385C11.51562,20.4187,11.58125,20.4844,11.66146,20.4844ZM22.4167,9L16.80208,9C16.72187,9,16.65625,9.0656251,16.65625,9.145833L16.65625,15.19792C16.65625,15.278120000000001,16.72187,15.34375,16.80208,15.34375L22.8542,15.34375C22.9344,15.34375,23,15.278120000000001,23,15.19792L23,9.583333C23,9.260677,22.7393,9,22.4167,9ZM21.8333,14.17708L17.82292,14.17708L17.82292,10.16667L21.8333,10.16667L21.8333,14.17708ZM19.317700000000002,12.82812L20.3385,12.82812C20.4187,12.82812,20.4844,12.7625,20.4844,12.68229L20.4844,11.66146C20.4844,11.58125,20.4187,11.51562,20.3385,11.51562L19.317700000000002,11.51562C19.2375,11.51562,19.1719,11.58125,19.1719,11.66146L19.1719,12.68229C19.1719,12.7625,19.2375,12.82812,19.317700000000002,12.82812ZM22.8542,16.65625L21.9792,16.65625C21.899,16.65625,21.8333,16.72187,21.8333,16.80208L21.8333,19.244799999999998L20.4115,19.244799999999998L20.4115,16.80208C20.4115,16.72187,20.3458,16.65625,20.2656,16.65625L16.80208,16.65625C16.72187,16.65625,16.65625,16.72187,16.65625,16.80208L16.65625,22.8542C16.65625,22.9344,16.72187,23,16.80208,23L17.67708,23C17.757289999999998,23,17.82292,22.9344,17.82292,22.8542L17.82292,18.40625L19.244799999999998,18.40625L19.244799999999998,20.2656C19.244799999999998,20.3458,19.3104,20.4115,19.3906,20.4115L22.8542,20.4115C22.9344,20.4115,23,20.3458,23,20.2656L23,16.80208C23,16.72187,22.9344,16.65625,22.8542,16.65625ZM20.2656,21.8333L19.3906,21.8333C19.3104,21.8333,19.244799999999998,21.899,19.244799999999998,21.9792L19.244799999999998,22.8542C19.244799999999998,22.9344,19.3104,23,19.3906,23L20.2656,23C20.3458,23,20.4115,22.9344,20.4115,22.8542L20.4115,21.9792C20.4115,21.899,20.3458,21.8333,20.2656,21.8333ZM22.8542,21.8333L21.9792,21.8333C21.899,21.8333,21.8333,21.899,21.8333,21.9792L21.8333,22.8542C21.8333,22.9344,21.899,23,21.9792,23L22.8542,23C22.9344,23,23,22.9344,23,22.8542L23,21.9792C23,21.899,22.9344,21.8333,22.8542,21.8333Z"
          fill="#9DA3AF" fill-opacity="1" />
      </g>
    </g>
  </g>
</svg>