<svg viewBox="0 0 1026 1024"
  xmlns="http://www.w3.org/2000/svg">
  <path d="M706.609067 772.266667c29.866667 29.866667 64 46.933333 98.133333 55.466666l12.8 4.266667c25.6 4.266667 38.4 29.866667 42.666667 55.466667 0 29.866667-21.333333 55.466667-51.2 59.733333-29.866667 4.266667-55.466667-12.8-64-42.666667-8.533333-42.666667-25.6-81.066667-59.733334-110.933333-4.266667-4.266667 0-12.8-4.266666-17.066667h12.8c8.533333-8.533333 8.533333-8.533333 12.8-4.266666z m51.2-550.4c59.733333 64 93.866667 136.533333 93.866666 221.866666-17.066667-8.533333-29.866667-8.533333-46.933333-8.533333h-4.266667c-55.466667 4.266667-102.4 46.933333-110.933333 102.4v29.866667c-21.333333 21.333333-46.933333 34.133333-81.066667 38.4-59.733333 12.8-98.133333 72.533333-85.333333 132.266666 4.266667 25.6 17.066667 46.933333 38.4 64-38.4 12.8-72.533333 17.066667-110.933333 17.066667-46.933333 4.266667-98.133333-4.266667-145.066667-12.8-8.533333 0-17.066667 0-25.6 4.266667L173.275733 861.866667c-12.8 8.533333-25.6 8.533333-38.4 0-12.8-8.533333-12.8-21.333333-12.8-38.4l12.8-89.6c0-8.533333-4.266667-12.8-8.533333-21.333334C79.409067 665.6 36.7424 610.133333 15.409067 546.133333-22.990933 413.866667 11.1424 302.933333 109.275733 209.066667c174.933333-170.666667 482.133333-162.133333 648.533334 12.8z m217.6 435.2c29.866667 4.266667 51.2 29.866667 51.2 59.733333s-17.066667 51.2-46.933334 59.733333c-34.133333 8.533333-68.266667 21.333333-93.866666 42.666667l-8.533334 8.533333c-4.266667 4.266667-17.066667 12.8-21.333333 4.266667-4.266667-4.266667 0-17.066667 4.266667-21.333333 29.866667-29.866667 46.933333-64 55.466666-106.666667 0-29.866667 29.866667-46.933333 59.733334-46.933333z m-226.133334-51.2c0 4.266667 0 17.066667-4.266666 17.066666-29.866667 29.866667-46.933333 68.266667-55.466667 106.666667-4.266667 29.866667-34.133333 46.933333-64 42.666667-29.866667-4.266667-51.2-29.866667-51.2-59.733334 0-25.6 17.066667-46.933333 42.666667-55.466666 42.666667-8.533333 76.8-25.6 106.666666-55.466667 8.533333 0 17.066667 4.266667 25.6 4.266667z m51.2-115.2c25.6 0 51.2 17.066667 55.466667 46.933333 8.533333 42.666667 25.6 76.8 55.466667 106.666667 4.266667 4.266667 0 12.8 4.266666 21.333333-8.533333 0-17.066667 4.266667-21.333333 0-29.866667-29.866667-68.266667-46.933333-110.933333-55.466667-29.866667-8.533333-46.933333-34.133333-42.666667-59.733333 8.533333-34.133333 29.866667-59.733333 59.733333-59.733333z" fill="currentColor"></path>
</svg>