<svg xmlns="http://www.w3.org/2000/svg"
  xmlns:xlink="http://www.w3.org/1999/xlink" fill="none">
  <g>
    <g>
      <path d="M16,8C16,12.4183,12.4183,16,8,16C3.58172,16,0,12.4183,0,8C0,3.58172,3.58172,0,8,0C12.4183,0,16,3.58172,16,8ZM14.6,8Q14.6,5.26619,12.6669,3.3331Q10.7338,1.4,8,1.4Q5.26619,1.4,3.3331,3.3331Q1.4,5.26619,1.4,8Q1.4,10.7338,3.3331,12.6669Q5.26619,14.6,8,14.6Q10.7338,14.6,12.6669,12.6669Q14.6,10.7338,14.6,8Z" fill-rule="evenodd" fill="#9DA3AF" fill-opacity="1"/>
    </g>
    <g>
      <path d="M5.93408203125,10.453974756164552C5.93408870697,10.589764756164552,5.97098473125,10.72320475616455,6.04077103125,10.83971475616455C6.11055803125,10.95616475616455,6.21058903125,11.051014756164552,6.33032203125,11.115104756164552C6.45004803125,11.179204756164552,6.58494303125,11.209534756164551,6.72058103125,11.20300475616455C6.85621303125,11.196464756164552,6.98759203125,11.15329475616455,7.10058203125,11.07800475616455L11.00000203125,8.478394756164551C11.10277203125,8.409894756164551,11.18707203125,8.316794756164551,11.24536203125,8.207884756164551C11.30365203125,8.098974756164552,11.33410203125,7.977884756164551,11.33410203125,7.854364756164551C11.33410203125,7.73085475616455,11.30365203125,7.608784756164551,11.24536203125,7.499874756164551C11.18707203125,7.390984756164551,11.10277203125,7.297884756164551,11.00000203125,7.229364756164551L7.10058203125,4.628781756164551C6.98759203125,4.553459156164551,6.85621303125,4.51033687616455,6.72058103125,4.503781318164551C6.58494303125,4.497225346164551,6.45004803125,4.5276005561645505,6.33032203125,4.591671956164551C6.21058903125,4.655742756164551,6.11055803125,4.750570756164551,6.04077103125,4.867062756164551C5.97098473125,4.983546756164551,5.93408870697,5.11701275616455,5.93408203125,5.252804756164551L5.93408203125,10.453974756164552Z" fill="#9DA3AF" fill-opacity="1"/>
    </g>
  </g>
</svg>
