<svg xmlns="http://www.w3.org/2000/svg" xmlns:xlink="http://www.w3.org/1999/xlink" fill="none" version="1.1" width="24" height="24" viewBox="0 0 24 24"><defs><clipPath id="master_svg0_4028_61293"><rect x="0" y="0" width="24" height="24" rx="0"/></clipPath></defs><g clip-path="url(#master_svg0_4028_61293)"><g><path d="M11,3.75C11,3.75,13,3.75,13,3.75C13,3.75,13,2.25,13,2.25C13,2.25,11,2.25,11,2.25C11,2.25,11,3.75,11,3.75C11,3.75,11,3.75,11,3.75ZM2.75,17C2.75,17,2.75,12,2.75,12C2.75,12,1.25,12,1.25,12C1.25,12,1.25,17,1.25,17C1.25,17,2.75,17,2.75,17C2.75,17,2.75,17,2.75,17ZM13,20.25C13,20.25,6,20.25,6,20.25C6,20.25,6,21.75,6,21.75C6,21.75,13,21.75,13,21.75C13,21.75,13,20.25,13,20.25C13,20.25,13,20.25,13,20.25ZM1.25,17C1.25,19.6234,3.37665,21.75,6,21.75C6,21.75,6,20.25,6,20.25C4.20507,20.25,2.75,18.7949,2.75,17C2.75,17,1.25,17,1.25,17C1.25,17,1.25,17,1.25,17ZM21.25,12C21.25,16.5563,17.5563,20.25,13,20.25C13,20.25,13,21.75,13,21.75C18.3848,21.75,22.75,17.3848,22.75,12C22.75,12,21.25,12,21.25,12C21.25,12,21.25,12,21.25,12ZM13,3.75C17.5563,3.75,21.25,7.44365,21.25,12C21.25,12,22.75,12,22.75,12C22.75,6.61522,18.3848,2.25,13,2.25C13,2.25,13,3.75,13,3.75C13,3.75,13,3.75,13,3.75ZM11,2.25C5.61522,2.25,1.25,6.61522,1.25,12C1.25,12,2.75,12,2.75,12C2.75,7.44365,6.44365,3.75,11,3.75C11,3.75,11,2.25,11,2.25C11,2.25,11,2.25,11,2.25Z" fill="#7C5CFC" fill-opacity="1"/></g><g><ellipse cx="12" cy="12" rx="1" ry="1" fill="#7C5CFC" fill-opacity="1"/></g><g><ellipse cx="16" cy="12" rx="1" ry="1" fill="#7C5CFC" fill-opacity="1"/></g><g><ellipse cx="8" cy="12" rx="1" ry="1" fill="#7C5CFC" fill-opacity="1"/></g></g></svg>