<svg xmlns="http://www.w3.org/2000/svg" xmlns:xlink="http://www.w3.org/1999/xlink" fill="none" version="1.1" width="24" height="24" viewBox="0 0 24 24"><g><g><path d="M21.75,9.36111C21.75,8.9469,21.4142,8.61111,21,8.61111C20.5858,8.61111,20.25,8.9469,20.25,9.36111C20.25,9.36111,21.75,9.36111,21.75,9.36111C21.75,9.36111,21.75,9.36111,21.75,9.36111ZM13.4464,2.75C13.8606,2.75,14.1964,2.4142099999999997,14.1964,2C14.1964,1.585786,13.8606,1.25,13.4464,1.25C13.4464,1.25,13.4464,2.75,13.4464,2.75C13.4464,2.75,13.4464,2.75,13.4464,2.75ZM20.25,9.36111C20.25,9.36111,20.25,18,20.25,18C20.25,18,21.75,18,21.75,18C21.75,18,21.75,9.36111,21.75,9.36111C21.75,9.36111,20.25,9.36111,20.25,9.36111C20.25,9.36111,20.25,9.36111,20.25,9.36111ZM17,21.25C17,21.25,7,21.25,7,21.25C7,21.25,7,22.75,7,22.75C7,22.75,17,22.75,17,22.75C17,22.75,17,21.25,17,21.25C17,21.25,17,21.25,17,21.25ZM3.75,18C3.75,18,3.75,6,3.75,6C3.75,6,2.25,6,2.25,6C2.25,6,2.25,18,2.25,18C2.25,18,3.75,18,3.75,18C3.75,18,3.75,18,3.75,18ZM7,2.75C7,2.75,13.4464,2.75,13.4464,2.75C13.4464,2.75,13.4464,1.25,13.4464,1.25C13.4464,1.25,7,1.25,7,1.25C7,1.25,7,2.75,7,2.75C7,2.75,7,2.75,7,2.75ZM7,21.25C5.20507,21.25,3.75,19.7949,3.75,18C3.75,18,2.25,18,2.25,18C2.25,20.6234,4.37665,22.75,7,22.75C7,22.75,7,21.25,7,21.25C7,21.25,7,21.25,7,21.25ZM20.25,18C20.25,19.7949,18.7949,21.25,17,21.25C17,21.25,17,22.75,17,22.75C19.6234,22.75,21.75,20.6234,21.75,18C21.75,18,20.25,18,20.25,18C20.25,18,20.25,18,20.25,18ZM3.75,6C3.75,4.20507,5.205080000000001,2.75,7,2.75C7,2.75,7,1.25,7,1.25C4.37665,1.25,2.25,3.37665,2.25,6C2.25,6,3.75,6,3.75,6C3.75,6,3.75,6,3.75,6Z" fill="#7C5CFC" fill-opacity="1"/></g><g><path d="M8,6.25C7.585786,6.25,7.25,6.585786,7.25,7C7.25,7.41421,7.585786,7.75,8,7.75C8,7.75,8,6.25,8,6.25C8,6.25,8,6.25,8,6.25ZM12,7.75C12.41421,7.75,12.75,7.41421,12.75,7C12.75,6.585786,12.41421,6.25,12,6.25C12,6.25,12,7.75,12,7.75C12,7.75,12,7.75,12,7.75ZM8,7.75C8,7.75,12,7.75,12,7.75C12,7.75,12,6.25,12,6.25C12,6.25,8,6.25,8,6.25C8,6.25,8,7.75,8,7.75C8,7.75,8,7.75,8,7.75Z" fill="#7C5CFC" fill-opacity="1"/></g><g><path d="M8,11.25C7.585786,11.25,7.25,11.585786,7.25,12C7.25,12.41421,7.585786,12.75,8,12.75C8,12.75,8,11.25,8,11.25C8,11.25,8,11.25,8,11.25ZM16,12.75C16.41421,12.75,16.75,12.41421,16.75,12C16.75,11.585786,16.41421,11.25,16,11.25C16,11.25,16,12.75,16,12.75C16,12.75,16,12.75,16,12.75ZM8,12.75C8,12.75,16,12.75,16,12.75C16,12.75,16,11.25,16,11.25C16,11.25,8,11.25,8,11.25C8,11.25,8,12.75,8,12.75C8,12.75,8,12.75,8,12.75Z" fill="#7C5CFC" fill-opacity="1"/></g><g><path d="M8,16.25C7.585786,16.25,7.25,16.585786,7.25,17C7.25,17.41421,7.585786,17.75,8,17.75C8,17.75,8,16.25,8,16.25C8,16.25,8,16.25,8,16.25ZM16,17.75C16.41421,17.75,16.75,17.41421,16.75,17C16.75,16.585786,16.41421,16.25,16,16.25C16,16.25,16,17.75,16,17.75C16,17.75,16,17.75,16,17.75ZM8,17.75C8,17.75,16,17.75,16,17.75C16,17.75,16,16.25,16,16.25C16,16.25,8,16.25,8,16.25C8,16.25,8,17.75,8,17.75C8,17.75,8,17.75,8,17.75Z" fill="#7C5CFC" fill-opacity="1"/></g><g><path d="M18.75,2C18.75,1.585786,18.41421,1.25,18,1.25C17.585786,1.25,17.25,1.585786,17.25,2C17.25,2,18.75,2,18.75,2C18.75,2,18.75,2,18.75,2ZM17.25,8C17.25,8.41421,17.585786,8.75,18,8.75C18.41421,8.75,18.75,8.41421,18.75,8C18.75,8,17.25,8,17.25,8C17.25,8,17.25,8,17.25,8ZM17.25,2C17.25,2,17.25,8,17.25,8C17.25,8,18.75,8,18.75,8C18.75,8,18.75,2,18.75,2C18.75,2,17.25,2,17.25,2C17.25,2,17.25,2,17.25,2Z" fill="#7C5CFC" fill-opacity="1"/></g><g transform="matrix(0,1,-1,0,26,-17.5)"><path d="M23.25,5C23.25,4.585786,22.91421,4.25,22.5,4.25C22.085786,4.25,21.75,4.585786,21.75,5C21.75,5,23.25,5,23.25,5C23.25,5,23.25,5,23.25,5ZM21.75,11C21.75,11.41421,22.085786,11.75,22.5,11.75C22.91421,11.75,23.25,11.41421,23.25,11C23.25,11,21.75,11,21.75,11C21.75,11,21.75,11,21.75,11ZM21.75,5C21.75,5,21.75,11,21.75,11C21.75,11,23.25,11,23.25,11C23.25,11,23.25,5,23.25,5C23.25,5,21.75,5,21.75,5C21.75,5,21.75,5,21.75,5Z" fill="#7C5CFC" fill-opacity="1"/></g></g></svg>