<svg xmlns="http://www.w3.org/2000/svg" xmlns:xlink="http://www.w3.org/1999/xlink" fill="none" version="1.1" width="24" height="24" viewBox="0 0 24 24"><defs><clipPath id="master_svg0_4028_61404"><rect x="0" y="0" width="24" height="24" rx="0"/></clipPath></defs><g clip-path="url(#master_svg0_4028_61404)"><g><path d="M21.446307415390013,7.09894C21.446307415390013,7.09894,20.860107415390015,6.63113,20.860107415390015,6.63113C20.860107415390015,6.63113,20.860107415390015,6.63113,20.860107415390015,6.63113C20.860107415390015,6.63113,21.446307415390013,7.09894,21.446307415390013,7.09894C21.446307415390013,7.09894,21.446307415390013,7.09894,21.446307415390013,7.09894ZM11.139407415390014,20.0145C11.139407415390014,20.0145,11.725607415390014,20.4824,11.725607415390014,20.4824C11.725607415390014,20.4824,11.725607415390014,20.4824,11.725607415390014,20.4824C11.725607415390014,20.4824,11.139407415390014,20.0145,11.139407415390014,20.0145C11.139407415390014,20.0145,11.139407415390014,20.0145,11.139407415390014,20.0145ZM5.785677415390015,10.52441C5.785677415390015,10.52441,5.241137415390014,11.04014,5.241137415390014,11.04014C5.241137415390014,11.04014,5.241147415390015,11.04014,5.241147415390015,11.04014C5.241147415390015,11.04014,5.785677415390015,10.52441,5.785677415390015,10.52441C5.785677415390015,10.52441,5.785677415390015,10.52441,5.785677415390015,10.52441ZM2.6961974153900146,7.26234C2.6961974153900146,7.26234,3.2407274153900145,6.74661,3.2407274153900145,6.74661C3.2407274153900145,6.74661,2.6961974153900146,7.26234,2.6961974153900146,7.26234C2.6961974153900146,7.26234,2.6961974153900146,7.26234,2.6961974153900146,7.26234ZM4.610937415390015,3.75C4.610937415390015,3.75,19.389407415390014,3.75,19.389407415390014,3.75C19.389407415390014,3.75,19.389407415390014,2.25,19.389407415390014,2.25C19.389407415390014,2.25,4.610937415390015,2.25,4.610937415390015,2.25C4.610937415390015,2.25,4.610937415390015,3.75,4.610937415390015,3.75C4.610937415390015,3.75,4.610937415390015,3.75,4.610937415390015,3.75ZM20.860107415390015,6.63113C20.860107415390015,6.63113,10.553187415390015,19.5467,10.553187415390015,19.5467C10.553187415390015,19.5467,11.725607415390014,20.4824,11.725607415390014,20.4824C11.725607415390014,20.4824,22.032507415390015,7.56675,22.032507415390015,7.56675C22.032507415390015,7.56675,20.860107415390015,6.63113,20.860107415390015,6.63113C20.860107415390015,6.63113,20.860107415390015,6.63113,20.860107415390015,6.63113ZM7.226727415390014,18.4553C7.226727415390014,18.4553,7.226727415390014,12.24704,7.226727415390014,12.24704C7.226727415390014,12.24704,5.726727415390014,12.24704,5.726727415390014,12.24704C5.726727415390014,12.24704,5.726727415390014,18.4553,5.726727415390014,18.4553C5.726727415390014,18.4553,7.226727415390014,18.4553,7.226727415390014,18.4553C7.226727415390014,18.4553,7.226727415390014,18.4553,7.226727415390014,18.4553ZM6.330217415390015,10.00867C6.330217415390015,10.00867,3.2407274153900145,6.74661,3.2407274153900145,6.74661C3.2407274153900145,6.74661,2.1516584153900147,7.77807,2.1516584153900147,7.77807C2.1516584153900147,7.77807,5.241137415390014,11.04014,5.241137415390014,11.04014C5.241137415390014,11.04014,6.330217415390015,10.00867,6.330217415390015,10.00867C6.330217415390015,10.00867,6.330217415390015,10.00867,6.330217415390015,10.00867ZM7.226727415390014,12.24704C7.226727415390014,11.41416,6.9046974153900145,10.61525,6.330217415390015,10.00867C6.330217415390015,10.00867,5.241147415390015,11.04014,5.241147415390015,11.04014C5.555307415390015,11.37185,5.726727415390014,11.803,5.726727415390014,12.24704C5.726727415390014,12.24704,7.226727415390014,12.24704,7.226727415390014,12.24704C7.226727415390014,12.24704,7.226727415390014,12.24704,7.226727415390014,12.24704ZM10.553187415390015,19.5467C9.445837415390015,20.9344,7.226727415390014,20.1217,7.226727415390014,18.4553C7.226727415390014,18.4553,5.726727415390014,18.4553,5.726727415390014,18.4553C5.726727415390014,21.6253,9.786447415390015,22.9123,11.725607415390014,20.4824C11.725607415390014,20.4824,10.553187415390015,19.5467,10.553187415390015,19.5467C10.553187415390015,19.5467,10.553187415390015,19.5467,10.553187415390015,19.5467ZM4.610937415390015,2.25C1.7213664153900146,2.25,0.1304974153900147,5.644019999999999,2.1516584153900147,7.77807C2.1516584153900147,7.77807,3.2407274153900145,6.74661,3.2407274153900145,6.74661C2.1803024153900146,5.626939999999999,2.957287415390015,3.75,4.610937415390015,3.75C4.610937415390015,3.75,4.610937415390015,2.25,4.610937415390015,2.25C4.610937415390015,2.25,4.610937415390015,2.25,4.610937415390015,2.25ZM19.389407415390014,3.75C20.967407415390014,3.75,21.775707415390016,5.48366,20.860107415390015,6.63113C20.860107415390015,6.63113,22.032507415390015,7.56675,22.032507415390015,7.56675C23.779307415390015,5.37776,22.148107415390015,2.25,19.389407415390014,2.25C19.389407415390014,2.25,19.389407415390014,3.75,19.389407415390014,3.75C19.389407415390014,3.75,19.389407415390014,3.75,19.389407415390014,3.75Z" fill="#7C5CFC" fill-opacity="1"/></g></g></svg>