<svg viewBox="0 0 1024 1024"
  xmlns="http://www.w3.org/2000/svg">
  <path d="M107.861333 330.069333a34.133333 34.133333 0 0 1-23.893333-10.24 34.133333 34.133333 0 0 1 0-46.762666l141.994667-143.701334A34.133333 34.133333 0 1 1 273.066667 177.834667L132.096 319.829333a34.133333 34.133333 0 0 1-24.234667 10.24zM935.594667 330.069333a34.133333 34.133333 0 0 1-24.234667-10.24l-141.994667-141.994666a34.133333 34.133333 0 0 1 0-48.469334 34.133333 34.133333 0 0 1 48.128 0L959.829333 273.066667a34.133333 34.133333 0 0 1-24.234666 58.368zM521.898667 189.098667a384.341333 384.341333 0 1 0 384 384A384.341333 384.341333 0 0 0 521.898667 189.098667z m225.28 293.205333l-231.082667 231.082667a34.133333 34.133333 0 0 1-48.469333 0l-149.845334-149.845334a34.133333 34.133333 0 0 1 0-48.469333 34.133333 34.133333 0 0 1 48.128 0l125.952 125.952 207.189334-207.189333a34.133333 34.133333 0 0 1 48.128 0 34.133333 34.133333 0 0 1 0 48.469333z" fill="currentColor"></path>
</svg>