<svg viewBox="0 0 1024 1024"
  xmlns="http://www.w3.org/2000/svg">
  <path d="M575.62914512 497.86018997c46.83812071-45.07064446 74.23400265-106.0485752 75.11774078-171.44519658s-24.74466755-127.25829025-69.81531201-173.21267286c20.32597692-7.95364315 41.53569195-11.48859565 62.745407-11.48859563 99.86240833 0 180.28257787 83.07138391 180.28257784 184.70126849 0 102.5136227-80.42016954 184.70126848-180.28257784 184.70126848-23.86092942 0-46.83812071-4.41869063-68.04783577-13.2560719z m84.83886018 75.11774078h64.51288325c129.02576651 0 225.35322231 91.02502705 225.35322232 223.58574607v15.02354815c0 41.53569195-60.09419262 67.16409763-152.88669594 68.93157388 4.41869063-7.06990501 7.06990501-15.02354815 7.06990504-22.97719129v-20.32597691c0.88373813-106.93231333-53.02428761-206.79472165-144.04931467-264.2376999zM387.39292413 124.92270048c104.28109895 0 189.11995914 86.60633642 189.11995912 193.53864976S492.55776122 512 387.39292413 512s-189.11995914-86.60633642-189.11995913-193.53864976c0.88373813-106.93231333 85.72259829-193.53864976 189.11995913-193.53864976zM317.57761212 576.51288325h157.30538655c134.32819526 0 243.91172299 111.35100397 243.91172298 250.09788988v15.90728627c0 53.90802574-109.58352772 56.55924012-243.91172298 56.55924012H317.57761212c-134.32819526 0-243.91172299 0-243.91172299-56.55924012v-15.90728627c0.88373813-138.7468859 108.6997896-250.09788987 243.91172299-250.09788988z" fill="currentColor"></path>
</svg>