<svg viewBox="0 0 1024 1024"
  xmlns="http://www.w3.org/2000/svg">
  <path d="M276.48 223.232h333.824c18.432 83.968 92.16 145.408 180.224 145.408 102.4 0 184.32-81.92 184.32-184.32s-81.92-184.32-184.32-184.32c-88.064 0-161.792 63.488-180.224 145.408H276.48c-112.64 0-204.8 92.16-204.8 204.8 0 102.4 73.728 186.368 172.032 200.704 4.096 2.048 10.24 2.048 14.336 2.048h444.416c67.584 2.048 124.928 57.344 124.928 126.976 0 69.632-57.344 126.976-126.976 126.976H366.592c-14.336-86.016-90.112-153.6-182.272-153.6-102.4 0-184.32 81.92-184.32 184.32s81.92 184.32 184.32 184.32c86.016 0 157.696-59.392 178.176-139.264h337.92c112.64 0 204.8-92.16 204.8-204.8 0-102.4-73.728-186.368-172.032-200.704-4.096-2.048-10.24-2.048-14.336-2.048h-16.384H274.432c-67.584-2.048-124.928-57.344-124.928-126.976 2.048-67.584 57.344-124.928 126.976-124.928z m514.048-145.408c59.392 0 106.496 47.104 106.496 106.496 0 59.392-47.104 106.496-106.496 106.496-59.392 0-106.496-47.104-106.496-106.496 0-57.344 47.104-106.496 106.496-106.496zM184.32 946.176c-59.392 0-106.496-47.104-106.496-106.496 0-59.392 47.104-106.496 106.496-106.496s106.496 47.104 106.496 106.496c0 57.344-47.104 106.496-106.496 106.496z" fill="currentColor"></path>
</svg>